<svg xmlns="http://www.w3.org/2000/svg" width="115" height="48" viewBox="0 0 115 48" fill="none">
  <path
    d="M55.4858 14.7966V6.35791H57.8209C58.0644 6.35791 58.2824 6.36218 58.4768 6.37286C58.669 6.38355 58.8912 6.40491 59.1412 6.43696C59.3911 6.469 59.609 6.516 59.7992 6.57582C59.9893 6.63564 60.1795 6.71896 60.3739 6.82791C60.5661 6.93687 60.7264 7.06505 60.8524 7.21246C60.9785 7.362 61.081 7.54787 61.16 7.76792C61.2391 7.9901 61.2797 8.24005 61.2797 8.51778C61.2797 9.3531 60.9058 9.95342 60.1602 10.3209C60.6623 10.4555 61.0383 10.7097 61.2904 11.0836C61.5425 11.4574 61.6664 11.8997 61.6664 12.4145C61.6664 12.735 61.6023 13.0362 61.4741 13.3161C61.3459 13.5959 61.16 13.848 60.9122 14.0723C60.6644 14.2967 60.3397 14.474 59.9359 14.6022C59.5321 14.7325 59.0749 14.7966 58.5644 14.7966H55.4858ZM56.9578 9.85729H58.2161C58.4127 9.85729 58.5943 9.83806 58.7609 9.80174C58.9275 9.76542 59.0835 9.70347 59.233 9.62015C59.3826 9.53469 59.4979 9.41506 59.5834 9.26124C59.6689 9.10742 59.7116 8.92156 59.7116 8.70578C59.7116 8.28919 59.5663 8.00292 59.2779 7.85123C58.9874 7.69955 58.5323 7.62264 57.9106 7.62264H56.9599V9.85729H56.9578ZM56.9749 13.5383H58.3016C59.4873 13.5383 60.0812 13.143 60.0812 12.3504C60.0812 11.8548 59.9487 11.5151 59.6838 11.3314C59.4189 11.1455 58.9468 11.0537 58.2674 11.0537H56.9749V13.5383Z"
    fill="white" />
  <path
    d="M63.1253 14.7964V10.357C63.1253 10.1242 63.1146 9.88277 63.0954 9.63281C63.0762 9.38072 63.057 9.18845 63.0377 9.05386L63.0078 8.8509H64.5375V9.63281C64.7725 9.32304 65.0075 9.09017 65.2425 8.93422C65.4753 8.77826 65.7402 8.69922 66.0329 8.69922C66.206 8.69922 66.4046 8.72913 66.6247 8.78681V10.0451C66.3662 9.95968 66.1269 9.91695 65.9069 9.91695C65.5095 9.91695 65.1848 10.0473 64.9327 10.3058C64.6806 10.5643 64.5567 10.9403 64.5567 11.4295V14.7964H63.1253Z"
    fill="white" />
  <path d="M67.5713 7.62051V6.35791H68.9621V7.62051H67.5713ZM67.5777 14.7966V8.84892H68.9621V14.7944H67.5777V14.7966Z"
    fill="white" />
  <path
    d="M74.1407 14.79H73.5618C73.3289 14.79 73.1281 14.7836 72.9593 14.7729C72.7884 14.7622 72.6154 14.7366 72.4338 14.6981C72.2543 14.6597 72.1005 14.6084 71.9766 14.5443C71.8505 14.4802 71.7309 14.3948 71.6134 14.2858C71.498 14.1769 71.404 14.0465 71.3357 13.8949C71.2652 13.7432 71.2118 13.5595 71.1712 13.348C71.1306 13.1365 71.1113 12.8929 71.1113 12.6173V9.81226H69.8701V8.85089H71.169V7.46011L72.5427 7.03711V8.85089H74.0959V9.81226H72.5427V12.7049C72.5427 12.8908 72.5577 13.0403 72.5855 13.1535C72.6154 13.2668 72.6581 13.3629 72.7158 13.4377C72.7734 13.5125 72.8717 13.568 73.0084 13.6022C73.1452 13.6364 73.2947 13.6599 73.4571 13.6727C73.6195 13.6834 73.848 13.6898 74.1407 13.6898V14.79Z"
    fill="white" />
  <path d="M75.2749 7.62051V6.35791H76.6657V7.62051H75.2749ZM75.2792 14.7966V8.84892H76.6635V14.7944H75.2792V14.7966Z"
    fill="white" />
  <path
    d="M80.5262 14.9291C80.0049 14.9291 79.5264 14.8565 79.0884 14.7091C78.6526 14.5617 78.3044 14.3865 78.0459 14.1814L78.4048 13.1495C78.6484 13.3397 78.956 13.4935 79.3256 13.6153C79.6973 13.737 80.0541 13.799 80.398 13.799C80.7185 13.799 80.962 13.7456 81.1244 13.6366C81.2889 13.5277 81.3701 13.3525 81.3701 13.1089V13.0043C81.3701 12.8803 81.321 12.7757 81.2248 12.6881C81.1287 12.6005 80.9065 12.5022 80.5583 12.389L79.7123 12.1155C79.4965 12.045 79.317 11.9809 79.1739 11.9211C79.0308 11.8613 78.8855 11.7844 78.7359 11.6925C78.5864 11.6007 78.471 11.4981 78.3877 11.3892C78.3044 11.2781 78.236 11.1435 78.1848 10.9832C78.1335 10.823 78.1057 10.6393 78.1057 10.4299C78.1057 10.1287 78.1655 9.86378 78.283 9.63519C78.4005 9.4066 78.565 9.22715 78.7723 9.09683C78.9816 8.96437 79.2124 8.86824 79.4687 8.80414C79.723 8.74005 80.0028 8.70801 80.3083 8.70801C80.6865 8.70801 81.0646 8.75714 81.4449 8.85328C81.823 8.94942 82.1563 9.09256 82.4425 9.28269L82.0708 10.2676C81.838 10.1437 81.5666 10.039 81.2569 9.95565C80.945 9.87019 80.6651 9.82747 80.413 9.82747C80.084 9.82747 79.8469 9.86806 79.6994 9.94924C79.552 10.0304 79.4794 10.1629 79.4794 10.3487C79.4794 10.4727 79.5029 10.5688 79.5499 10.6393C79.5969 10.7098 79.693 10.7803 79.8404 10.8529C79.9879 10.9256 80.2229 11.0174 80.5476 11.1264L81.3188 11.387C81.6286 11.4917 81.8764 11.6049 82.0644 11.7288C82.2524 11.8527 82.402 12.0279 82.5173 12.2565C82.6306 12.4851 82.6882 12.7714 82.6882 13.1153C82.6882 13.3781 82.6455 13.6153 82.5579 13.8289C82.4703 14.0404 82.3571 14.2156 82.2161 14.3502C82.0751 14.4848 81.9085 14.598 81.7183 14.6856C81.526 14.7753 81.3338 14.8373 81.1351 14.8736C80.9385 14.9099 80.7356 14.9291 80.5262 14.9291Z"
    fill="white" />
  <path
    d="M83.9658 14.7966V6.35156H85.4036V9.62021C85.5467 9.34676 85.7967 9.12457 86.1577 8.95366C86.5167 8.78275 86.8585 8.69944 87.1832 8.69944C87.4567 8.69944 87.7087 8.73148 87.9331 8.79771C88.1595 8.86394 88.3497 8.94939 88.5035 9.05835C88.6573 9.1673 88.794 9.29976 88.9094 9.45571C89.0248 9.61167 89.1166 9.76976 89.1828 9.92999C89.2491 10.0902 89.3025 10.2675 89.3431 10.4598C89.3837 10.6521 89.4114 10.8294 89.4242 10.9875C89.4371 11.1456 89.4435 11.3122 89.4435 11.4853V14.7945H88.0057V11.4404C88.0057 10.8807 87.9181 10.4769 87.7451 10.2312C87.572 9.98553 87.3114 9.86376 86.9631 9.86376C86.5701 9.86376 86.2111 10.0005 85.8886 10.2718C85.566 10.5453 85.4036 10.8572 85.4036 11.2139V14.7966H83.9658Z"
    fill="white" />
  <path
    d="M59.3162 27.057C57.9297 27.057 56.8615 26.6789 56.1138 25.9205C55.3661 25.1621 54.9922 24.1366 54.9922 22.842C54.9922 22.3592 55.052 21.8934 55.1738 21.4469C55.2956 21.0004 55.4814 20.5881 55.7292 20.21C55.9792 19.8318 56.2783 19.5028 56.6308 19.2208C56.9833 18.941 57.3999 18.7209 57.8848 18.5628C58.3698 18.4047 58.8953 18.3257 59.4636 18.3257C59.861 18.3257 60.2242 18.3535 60.551 18.409C60.8779 18.4645 61.1556 18.5457 61.3885 18.6504C61.6214 18.7551 61.7923 18.8405 61.9034 18.9089C62.0144 18.9773 62.1384 19.0627 62.2751 19.1674L61.6833 20.1993C61.13 19.7976 60.3929 19.5968 59.47 19.5968C58.9829 19.5968 58.5471 19.6866 58.1604 19.8703C57.7737 20.0519 57.464 20.2954 57.2332 20.6009C57.0004 20.9064 56.8252 21.244 56.7056 21.6157C56.5859 21.9874 56.5261 22.3741 56.5261 22.78C56.5261 23.2244 56.5859 23.6303 56.7056 23.9978C56.8252 24.3652 57.0004 24.6835 57.2332 24.9506C57.4661 25.2198 57.7631 25.427 58.1284 25.5765C58.4937 25.7261 58.9124 25.8008 59.3824 25.8008C59.8503 25.8008 60.331 25.7282 60.8266 25.5808V23.5876H58.8569V22.3292H62.3221V26.4161C61.3628 26.8434 60.3588 27.057 59.3162 27.057Z"
    fill="white" />
  <path
    d="M66.9898 27.0575C65.99 27.0575 65.1996 26.7712 64.6227 26.1987C64.0459 25.6261 63.7554 24.8784 63.7554 23.9555C63.7554 23.5389 63.8259 23.1415 63.9647 22.7676C64.1036 22.3938 64.3001 22.0605 64.5522 21.77C64.8043 21.4794 65.1269 21.2508 65.5136 21.0799C65.9024 20.909 66.3318 20.8257 66.804 20.8257C67.2761 20.8257 67.6863 20.9069 68.0388 21.0692C68.3913 21.2316 68.669 21.458 68.8741 21.7507C69.0792 22.0434 69.2309 22.3703 69.3292 22.7335C69.4274 23.0966 69.4766 23.4983 69.4766 23.9384C69.4766 24.0495 69.4659 24.1349 69.4467 24.1926H65.2743C65.2978 24.7716 65.4751 25.201 65.8042 25.4787C66.1353 25.7564 66.5732 25.8953 67.1223 25.8953C67.7632 25.8953 68.3892 25.6838 69.0002 25.2587L69.389 26.3012C69.0151 26.5597 68.637 26.7498 68.2567 26.8716C67.8764 26.9955 67.4534 27.0575 66.9898 27.0575ZM65.2914 23.2376H68.2482C68.1777 22.8168 68.0217 22.4942 67.7782 22.2699C67.5346 22.0456 67.2377 21.9345 66.8852 21.9345C66.4707 21.9345 66.1267 22.0498 65.8469 22.2827C65.5713 22.5134 65.3854 22.8317 65.2914 23.2376Z"
    fill="white" />
  <path
    d="M73.7494 27.0575C73.2324 27.0575 72.771 26.9742 72.365 26.8054C71.9591 26.6366 71.6323 26.4102 71.3823 26.1217C71.1324 25.8333 70.9444 25.5065 70.814 25.1369C70.6837 24.7673 70.6196 24.3721 70.6196 23.9512C70.6196 23.5218 70.6859 23.1223 70.8162 22.7484C70.9465 22.3767 71.1388 22.0456 71.393 21.7571C71.6451 21.4687 71.9741 21.2423 72.3779 21.0756C72.7816 20.909 73.2367 20.8257 73.743 20.8257C74.26 20.8257 74.7215 20.9069 75.1231 21.0714C75.5247 21.2359 75.8473 21.4623 76.0909 21.7486C76.3344 22.037 76.516 22.366 76.6378 22.7399C76.7596 23.1137 76.8194 23.5196 76.8194 23.9597C76.8194 24.3742 76.7553 24.763 76.6271 25.1283C76.4989 25.4937 76.3131 25.8205 76.0674 26.1111C75.8217 26.4016 75.4991 26.6302 75.0996 26.8011C74.7044 26.972 74.2515 27.0575 73.7494 27.0575ZM73.7216 25.8974C74.0036 25.8974 74.2515 25.844 74.463 25.7372C74.6745 25.6304 74.8432 25.4851 74.965 25.2971C75.0868 25.1091 75.1765 24.9019 75.2385 24.6733C75.2983 24.4447 75.3282 24.199 75.3282 23.932C75.3282 23.3637 75.1936 22.898 74.9244 22.5348C74.6552 22.1716 74.2579 21.99 73.728 21.99C73.3691 21.99 73.0658 22.0797 72.818 22.2592C72.5701 22.4386 72.3928 22.6715 72.2817 22.9578C72.1706 23.2441 72.1172 23.5688 72.1172 23.932C72.1172 24.2909 72.1685 24.6135 72.271 24.8997C72.3736 25.186 72.5488 25.4232 72.7987 25.6133C73.0466 25.8034 73.3542 25.8974 73.7216 25.8974Z"
    fill="white" />
  <path d="M78.2061 26.9251V18.48H79.6267V26.9251H78.2061Z" fill="white" />
  <path
    d="M84.1107 27.0575C83.5937 27.0575 83.1323 26.9742 82.7264 26.8054C82.3205 26.6366 81.9936 26.4102 81.7436 26.1217C81.4937 25.8333 81.3057 25.5065 81.1754 25.1369C81.045 24.7673 80.981 24.3721 80.981 23.9512C80.981 23.5218 81.0472 23.1223 81.1775 22.7484C81.3078 22.3767 81.5001 22.0456 81.7543 21.7571C82.0064 21.4687 82.3354 21.2423 82.7392 21.0756C83.143 20.909 83.598 20.8257 84.1043 20.8257C84.6213 20.8257 85.0828 20.9069 85.4844 21.0714C85.8861 21.2359 86.2087 21.4623 86.4522 21.7486C86.6958 22.037 86.8773 22.366 86.9991 22.7399C87.1209 23.1137 87.1807 23.5196 87.1807 23.9597C87.1807 24.3742 87.1166 24.763 86.9884 25.1283C86.8603 25.4937 86.6744 25.8205 86.4287 26.1111C86.183 26.4016 85.8604 26.6302 85.4609 26.8011C85.0636 26.972 84.6128 27.0575 84.1107 27.0575ZM84.0808 25.8974C84.3628 25.8974 84.6107 25.844 84.8222 25.7372C85.0337 25.6304 85.2024 25.4851 85.3242 25.2971C85.446 25.1091 85.5357 24.9019 85.5977 24.6733C85.6575 24.4447 85.6874 24.199 85.6874 23.932C85.6874 23.3637 85.5528 22.898 85.2836 22.5348C85.0144 22.1716 84.6171 21.99 84.0872 21.99C83.7283 21.99 83.425 22.0797 83.1771 22.2592C82.9293 22.4386 82.752 22.6715 82.6409 22.9578C82.5298 23.2441 82.4764 23.5688 82.4764 23.932C82.4764 24.2909 82.5277 24.6135 82.6302 24.8997C82.7328 25.186 82.908 25.4232 83.1579 25.6133C83.4057 25.8034 83.7155 25.8974 84.0808 25.8974Z"
    fill="white" />
  <path
    d="M91.0159 29.3475C90.2425 29.3475 89.4905 29.2129 88.7556 28.9416L89.0055 27.7003C89.5845 28.0016 90.2211 28.1533 90.9133 28.1533C91.4688 28.1533 91.9046 28.0336 92.2165 27.7965C92.5284 27.5593 92.6865 27.2004 92.6865 26.7219V26.2177C92.3468 26.6898 91.8491 26.9248 91.1975 26.9248C90.3194 26.9248 89.6165 26.6557 89.0867 26.1152C88.5569 25.5768 88.292 24.8504 88.292 23.9382C88.292 23.5216 88.3475 23.1285 88.4608 22.7653C88.5719 22.4 88.7385 22.071 88.9585 21.7783C89.1786 21.4856 89.4713 21.2528 89.8366 21.0819C90.2019 20.911 90.6185 20.8276 91.0864 20.8276C91.4538 20.8276 91.7743 20.9003 92.052 21.0477C92.3276 21.1951 92.5412 21.3831 92.6929 21.616V20.9793H94.2162C94.1392 21.5668 94.1008 22.2312 94.1008 22.9726V26.0724C94.1008 28.2558 93.0711 29.3475 91.0159 29.3475ZM91.2957 25.8396C91.5243 25.8396 91.7251 25.8011 91.8982 25.7263C92.0712 25.6516 92.2122 25.5533 92.3212 25.4315C92.4301 25.3097 92.5177 25.1645 92.584 24.9936C92.6523 24.8227 92.6972 24.6517 92.7228 24.4808C92.7485 24.3099 92.7613 24.1262 92.7613 23.9339C92.7613 23.355 92.6395 22.885 92.3981 22.5282C92.1567 22.1714 91.7935 21.992 91.3107 21.992C90.9774 21.992 90.6954 22.086 90.4625 22.274C90.2297 22.462 90.0588 22.6991 89.9562 22.9832C89.8515 23.2695 89.8003 23.5878 89.8003 23.9403C89.8003 24.5342 89.922 25 90.1656 25.3375C90.4091 25.6751 90.7851 25.8396 91.2957 25.8396Z"
    fill="white" />
  <path d="M95.6899 19.7489V18.4863H97.0807V19.7489H95.6899ZM95.6964 26.925V20.9773H97.0807V26.9229H95.6964V26.925Z"
    fill="white" />
  <path
    d="M101.552 27.0573C101.069 27.0573 100.627 26.9718 100.228 26.8031C99.8282 26.6322 99.5014 26.4036 99.245 26.113C98.9908 25.8225 98.7921 25.4913 98.6532 25.1196C98.5144 24.7479 98.4438 24.3548 98.4438 23.9467C98.4438 23.3592 98.5656 22.8316 98.807 22.3616C99.0484 21.8915 99.4052 21.5198 99.8795 21.2421C100.354 20.9665 100.905 20.8276 101.535 20.8276C102.471 20.8276 103.189 21.0947 103.691 21.6266L103.176 22.5538C102.747 22.1757 102.251 21.9856 101.687 21.9856C101.123 21.9856 100.689 22.1629 100.388 22.5196C100.087 22.8743 99.935 23.3528 99.935 23.951C99.935 24.5342 100.095 25.0042 100.416 25.3632C100.736 25.7199 101.174 25.8994 101.732 25.8994C101.809 25.8994 101.886 25.8951 101.965 25.8887C102.042 25.8802 102.112 25.8716 102.174 25.8588C102.236 25.8481 102.3 25.831 102.368 25.8097C102.437 25.7883 102.492 25.7691 102.539 25.752C102.586 25.7349 102.638 25.7114 102.695 25.6793C102.753 25.6473 102.798 25.6238 102.832 25.6067C102.864 25.5896 102.907 25.564 102.956 25.5277C103.007 25.4935 103.039 25.47 103.056 25.4572C103.073 25.4465 103.105 25.423 103.148 25.3909C103.193 25.3589 103.217 25.3397 103.221 25.3354L103.654 26.3907C103.321 26.6236 102.99 26.7924 102.657 26.8971C102.328 27.0039 101.958 27.0573 101.552 27.0573Z"
    fill="white" />
  <path
    d="M107.393 27.0575C106.91 27.0575 106.477 26.9699 106.094 26.7968C105.712 26.6238 105.404 26.3909 105.173 26.1004C104.941 25.8098 104.765 25.4872 104.646 25.1326C104.526 24.778 104.466 24.4041 104.466 24.0131C104.466 23.5987 104.528 23.2056 104.652 22.8339C104.776 22.4621 104.956 22.1225 105.195 21.8191C105.432 21.5157 105.746 21.2743 106.137 21.0949C106.528 20.9154 106.97 20.8257 107.464 20.8257C108.181 20.8257 108.735 21.0863 109.121 21.6076V20.9752H110.529V26.9208H109.085V26.1089C108.654 26.7434 108.09 27.0575 107.393 27.0575ZM107.573 25.8974C108.128 25.8974 108.534 25.7201 108.786 25.3676C109.038 25.0151 109.166 24.5408 109.166 23.9512C109.166 23.3445 109.032 22.8659 108.763 22.5156C108.493 22.1652 108.087 21.9921 107.543 21.9921C107.009 21.9921 106.601 22.1673 106.316 22.5198C106.032 22.8723 105.891 23.3445 105.891 23.9405C105.891 24.5344 106.032 25.0108 106.316 25.3655C106.603 25.7201 107.021 25.8974 107.573 25.8974Z"
    fill="white" />
  <path d="M112.136 26.9251V18.48H113.556V26.9251H112.136Z" fill="white" />
  <path
    d="M57.9962 39.1855C57.4172 39.1855 56.8575 39.1 56.3213 38.9312C55.785 38.7603 55.362 38.5253 55.0522 38.2241L55.6782 37.1687C55.9517 37.3802 56.3084 37.5618 56.7485 37.7071C57.1865 37.8545 57.5732 37.9271 57.9043 37.9271C58.4256 37.9271 58.8123 37.831 59.0601 37.6366C59.31 37.4443 59.4339 37.1495 59.4339 36.7564C59.4339 36.6026 59.4233 36.4765 59.3998 36.3825C59.3763 36.2885 59.325 36.1903 59.2438 36.0877C59.1626 35.9852 59.0408 35.8912 58.8806 35.8036C58.7204 35.716 58.5046 35.6241 58.2354 35.528C58.1201 35.4895 57.9235 35.4254 57.6479 35.3357C57.3723 35.246 57.1694 35.1798 57.0433 35.1328C56.3469 34.87 55.8427 34.5602 55.5308 34.2034C55.2189 33.8467 55.0608 33.3617 55.0608 32.7507C55.0608 32.2551 55.1911 31.8321 55.4517 31.4817C55.7124 31.1292 56.0585 30.8707 56.4922 30.7041C56.9258 30.5374 57.4193 30.4541 57.9769 30.4541C58.7311 30.4541 59.3164 30.5267 59.733 30.6741C60.1496 30.8216 60.5449 31.0715 60.9145 31.4283L60.1603 32.4025C59.686 31.9496 59.0259 31.7252 58.1842 31.7252C57.7248 31.7252 57.351 31.8043 57.0626 31.9624C56.7742 32.1205 56.631 32.3619 56.631 32.6866C56.631 32.8447 56.6438 32.975 56.6716 33.0776C56.6994 33.1801 56.7549 33.2805 56.8425 33.3788C56.9301 33.4771 57.054 33.5689 57.2164 33.6523C57.3788 33.7356 57.5945 33.8253 57.8658 33.9214C57.962 33.9556 58.1649 34.0218 58.4726 34.1223C58.7802 34.2205 59.0088 34.2996 59.1584 34.3573C59.8463 34.6307 60.3248 34.9469 60.5961 35.3015C60.8675 35.6562 61.002 36.1518 61.002 36.7863C61.002 37.2072 60.9187 37.5768 60.7521 37.8951C60.5854 38.2134 60.359 38.4634 60.0749 38.645C59.7886 38.8265 59.4724 38.9611 59.1242 39.0509C58.7717 39.1406 58.3978 39.1855 57.9962 39.1855Z"
    fill="white" />
  <path
    d="M64.5802 39.1854C63.8623 39.1854 63.3005 38.9803 62.8988 38.568C62.4972 38.1557 62.2964 37.5917 62.2964 36.8738V33.1074H63.7213V36.8525C63.7213 37.2456 63.8239 37.5404 64.029 37.7369C64.2341 37.9313 64.5161 38.0296 64.875 38.0296C65.3044 38.0296 65.6206 37.9228 65.8278 37.707C66.035 37.4934 66.1376 37.1473 66.1376 36.673V33.1096H67.5754V37.4571L67.6459 39.0572H66.1611L66.1376 38.177C66.1184 38.2625 66.0756 38.3565 66.0073 38.459C65.9389 38.5616 65.847 38.6705 65.7295 38.7859C65.612 38.9013 65.4518 38.9974 65.2489 39.0764C65.048 39.1469 64.8237 39.1854 64.5802 39.1854Z"
    fill="white" />
  <path
    d="M69.2864 39.0508V34.6114C69.2864 34.3786 69.2758 34.1372 69.2565 33.8872C69.2373 33.6351 69.2181 33.4428 69.1989 33.3083L69.1689 33.1053H70.6986V33.8872C70.9336 33.5774 71.1686 33.3446 71.4036 33.1886C71.6365 33.0327 71.9014 32.9536 72.194 32.9536C72.3671 32.9536 72.5658 32.9835 72.7858 33.0412V34.2995C72.5273 34.2141 72.288 34.1713 72.068 34.1713C71.6706 34.1713 71.3459 34.3017 71.0938 34.5602C70.8417 34.8187 70.7178 35.1947 70.7178 35.6839V39.0508H69.2864Z"
    fill="white" />
  <path
    d="M75.8945 39.051L73.3906 33.1055H74.9908C76.0184 35.8678 76.5567 37.3141 76.608 37.4466C76.9135 36.6155 77.4326 35.1692 78.1676 33.1055H79.7271L77.1998 39.051H75.8945Z"
    fill="white" />
  <path
    d="M83.3546 39.1854C82.3548 39.1854 81.5643 38.8991 80.9875 38.3266C80.4107 37.754 80.1201 37.0063 80.1201 36.0834C80.1201 35.6668 80.1906 35.2694 80.3295 34.8956C80.4683 34.5217 80.6649 34.1884 80.917 33.8979C81.1691 33.6073 81.4917 33.3788 81.8784 33.2078C82.2672 33.0369 82.6966 32.9536 83.1687 32.9536C83.6409 32.9536 84.051 33.0348 84.4035 33.1972C84.756 33.3595 85.0338 33.586 85.2389 33.8787C85.444 34.1713 85.5956 34.4982 85.6939 34.8614C85.7922 35.2246 85.8413 35.6262 85.8413 36.0663C85.8413 36.1774 85.8306 36.2629 85.8114 36.3205H81.6391C81.6626 36.8995 81.8399 37.3289 82.1689 37.6066C82.5 37.8844 82.938 38.0232 83.487 38.0232C84.128 38.0232 84.7539 37.8117 85.3649 37.3866L85.7537 38.4291C85.3799 38.6876 85.0017 38.8778 84.6215 38.9995C84.239 39.1235 83.8182 39.1854 83.3546 39.1854ZM81.6562 35.3656H84.6129C84.5424 34.9447 84.3864 34.6221 84.1429 34.3978C83.8994 34.1735 83.6024 34.0624 83.2499 34.0624C82.8354 34.0624 82.4915 34.1778 82.2116 34.4106C81.9339 34.6413 81.748 34.9597 81.6562 35.3656Z"
    fill="white" />
  <path
    d="M87.6317 41.6314L87.0293 40.6572C87.5655 40.4479 87.9693 40.2321 88.2385 40.0099C88.5077 39.7877 88.6871 39.5207 88.7811 39.2066L88.8623 38.9161L86.335 33.103H87.8304L89.5523 37.3694L91.0371 33.103H92.5027L90.0907 39.3733C89.9241 39.7835 89.7062 40.1445 89.4348 40.4607C89.1635 40.7747 88.8815 41.0226 88.5888 41.1999C88.294 41.3793 87.9757 41.5225 87.6317 41.6314Z"
    fill="white" />
  <path
    d="M2.92024 22.0882C3.89016 11.1713 13.0872 2.58308 24.2519 2.58308C35.4166 2.58308 44.6115 11.1713 45.5836 22.0882H47.6537C46.6753 10.0326 36.5531 0.521484 24.2519 0.521484C11.9507 0.521484 1.82642 10.0326 0.850098 22.0882H2.92024Z"
    fill="white" />
  <path
    d="M45.5815 25.9121C44.6115 36.829 35.4145 45.4172 24.2498 45.4172C13.0851 45.4172 3.89015 36.829 2.91811 25.9121H0.850098C1.82642 37.9677 11.9485 47.4788 24.2498 47.4788C36.551 47.4788 46.6731 37.9677 47.6495 25.9121H45.5815Z"
    fill="white" />
  <path
    d="M16.155 24.8995C17.001 24.624 17.2916 24.0578 17.2916 22.6777C17.2916 20.9195 16.8365 20.3106 15.4607 20.1931C15.0826 20.1632 15.0826 20.1632 13.0851 20.1504H7.03271V29.8388H13.0957C15.9264 29.8239 16.0653 29.8089 16.5438 29.6209C17.2894 29.3304 17.6056 28.619 17.6056 27.2389C17.6078 25.6836 17.2659 25.1175 16.155 24.8995ZM9.47032 22.4299H13.0829C14.2451 22.4449 14.2836 22.4449 14.4224 22.4726C14.6873 22.5453 14.8006 22.7632 14.8006 23.1691C14.8006 23.5173 14.713 23.7651 14.5228 23.8527C14.3583 23.9403 13.993 23.9681 13.0829 23.9681H9.47032V22.4299ZM14.8155 27.397C14.6254 27.4995 14.6254 27.4995 13.0979 27.5123H9.47032V25.8994H13.0957C14.5869 25.9143 14.5869 25.9143 14.713 25.9421C15.0035 26.0147 15.1167 26.2177 15.1167 26.6685C15.1189 27.0786 15.0292 27.2966 14.8155 27.397Z"
    fill="white" />
  <path
    d="M24.021 26.2796H27.3944V26.5552C27.3944 27.6298 27.3196 27.6597 24.3244 27.6597L22.8204 27.6298C22.1004 27.5999 21.874 27.5571 21.6582 27.3542C21.3805 27.0935 21.3036 26.5979 21.3036 24.9572C21.3036 22.4448 21.3164 22.4298 24.3479 22.4298C26.2685 22.4298 26.8624 22.4875 27.1145 22.6905C27.279 22.8208 27.3046 22.9383 27.3175 23.5044H29.8811C29.8683 22.0816 29.7679 21.4856 29.4132 21.0049C28.8578 20.2358 27.6956 20.0029 24.5615 20.0029C19.1031 20.0029 18.7378 20.3084 18.7378 24.8397C18.7378 28.0207 18.8767 28.7321 19.6223 29.3004C20.3294 29.8516 21.2267 29.9841 24.1193 29.9841C26.4052 29.9841 27.2897 29.9264 28.1485 29.7234C29.159 29.4906 29.7017 28.8219 29.8042 27.6896C29.8427 27.2239 29.8918 25.5682 29.8918 24.6089V24.3483H24.0168V26.2796H24.021Z"
    fill="white" />
  <path
    d="M40.6721 24.3614C40.1294 23.9683 39.5847 23.8957 36.8074 23.7953C35.0256 23.7376 34.3313 23.6927 34.1049 23.6201C33.84 23.5475 33.7267 23.3595 33.7267 22.9963C33.7267 22.2849 33.9041 22.2272 36.0767 22.2272C37.8969 22.2272 38.211 22.2571 38.4268 22.4024C38.6169 22.5327 38.6532 22.663 38.6788 23.2014H41.1549C41.1677 23.0134 41.1677 22.8083 41.1677 22.7506C41.1677 21.6034 40.9648 20.9924 40.4606 20.6014C39.8667 20.1357 38.9822 20.0054 36.5318 20.0054C34.5108 20.0054 33.3486 20.0631 32.8551 20.1806C31.6929 20.4711 31.2379 21.3 31.2379 23.1437C31.2379 25.2801 31.819 25.8889 33.9041 25.9616L34.5856 25.9915L35.9507 26.0641L37.9717 26.1517C38.7921 26.1667 38.9822 26.3119 38.9822 26.893C38.9822 27.7497 38.9822 27.7497 36.2284 27.7497C34.4211 27.7497 34.1433 27.7198 33.9041 27.5468C33.7011 27.4015 33.652 27.2135 33.652 26.6324H31.1631V27.0981C31.1631 28.4355 31.3532 29.0016 31.9343 29.4225C32.5282 29.8583 33.5515 29.9886 36.1665 29.9886C38.681 29.9886 39.7428 29.916 40.2469 29.6981C41.1186 29.32 41.4732 28.4932 41.4732 26.8076C41.4689 25.451 41.2532 24.7973 40.6721 24.3614Z"
    fill="white" />
  <path
    d="M31.6714 11.5025C31.5645 10.727 31.1009 10.0071 30.4152 9.62038C30.0028 9.38752 29.5286 9.29565 29.0479 9.29565C29.018 9.29565 28.9881 9.29993 28.9603 9.29993C28.8727 9.30206 28.783 9.30633 28.6954 9.31488C28.6441 9.31915 28.5907 9.32556 28.5394 9.33197C28.454 9.34265 28.3707 9.35547 28.2873 9.37043C28.2275 9.38111 28.1677 9.39179 28.1079 9.40461C28.0331 9.41956 27.9605 9.43879 27.8878 9.45588C27.8131 9.47511 27.7426 9.49434 27.6699 9.5157C27.6144 9.53279 27.5567 9.54988 27.5033 9.56911C27.467 9.58193 27.4307 9.59047 27.3965 9.60329C27.0995 9.70797 26.8004 9.7977 26.5035 9.87247C26.4693 9.88102 26.4351 9.8917 26.4009 9.89811C26.2727 9.92802 26.1446 9.95579 26.0164 9.98143C25.9736 9.98997 25.9288 9.99852 25.8861 10.0071C25.76 10.0306 25.6318 10.0498 25.5036 10.0669C25.3861 10.084 25.2686 10.1011 25.1511 10.1139C25.1511 10.1139 24.8926 9.15038 24.8606 9.03929C24.867 9.03715 25.9907 9.55415 26.0206 9.56056C26.0206 9.56056 26.0206 8.85556 26.0206 8.47742C26.0206 8.09928 26.0206 7.39428 26.0206 7.39428C25.9907 7.40283 24.867 7.91983 24.8649 7.91556C24.8991 7.77242 25.3434 6.59314 25.3584 6.55469H24.2539H23.1494C23.1643 6.59314 23.6065 7.77242 23.6429 7.91556C23.6407 7.91769 22.517 7.40069 22.4871 7.39428C22.4871 7.39428 22.4871 8.09928 22.4871 8.47742C22.4871 8.85556 22.4871 9.56056 22.4871 9.56056C22.517 9.55202 23.6407 9.03502 23.6471 9.03929C23.6172 9.15038 23.3566 10.1139 23.3566 10.1139C23.2391 10.1011 23.1216 10.084 23.0041 10.0669C22.8759 10.0498 22.7499 10.0284 22.6217 10.0071C22.579 9.99852 22.5341 9.98997 22.4914 9.98143C22.3632 9.95579 22.235 9.93016 22.1068 9.89811C22.0726 9.88956 22.0385 9.88102 22.0043 9.87247C21.7052 9.7977 21.4082 9.71011 21.1113 9.60329C21.0771 9.59047 21.0386 9.58193 21.0044 9.56911C20.9489 9.54988 20.8934 9.53279 20.8378 9.5157C20.7652 9.49434 20.6947 9.47511 20.6199 9.45588C20.5473 9.43665 20.4746 9.41956 20.3999 9.40461C20.34 9.39179 20.2802 9.38111 20.2204 9.37043C20.1371 9.35547 20.0516 9.34265 19.9683 9.33197C19.917 9.32556 19.8636 9.32129 19.8124 9.31488C19.7248 9.30633 19.635 9.30206 19.5474 9.29993C19.5175 9.29993 19.4876 9.29565 19.4598 9.29565C18.9792 9.29565 18.5049 9.38752 18.0926 9.62038C17.4068 10.0071 16.9432 10.727 16.8364 11.5025C16.7552 12.0858 16.9389 12.6327 17.0735 13.1924C17.1504 13.5064 17.2252 13.8205 17.3021 14.1345C17.4816 14.8759 17.661 15.6193 17.8426 16.3606C17.8448 16.3713 17.8789 16.5422 17.8875 16.5422C17.9836 16.961 18.0819 17.3775 18.178 17.792H18.1802C18.1823 17.8027 18.1908 17.8091 18.2015 17.8091C18.2101 17.8091 18.2165 17.8048 18.2208 17.7984H18.2229C18.8937 16.8413 20.2375 16.6042 22.9122 16.5529H23.0682H23.4164C23.4356 16.2538 23.4143 15.9932 23.4143 15.9804C23.3929 15.4377 22.9485 15.004 22.4016 15.004C22.376 15.004 22.2606 15.0104 22.2051 15.0254C22.032 15.0532 21.8398 15.1151 21.6368 15.2454C21.6112 14.3567 22.1816 14.1452 22.4486 14.0939C22.7435 14.0534 23.0404 14.1046 23.2412 14.2371C23.5104 14.4144 23.7732 14.7028 23.8928 15.2583V15.1963C23.8928 14.0833 23.4485 13.9871 23.4655 13.1475C23.4826 12.3122 24.2517 11.7888 24.2581 11.7824C24.2646 11.7867 25.0336 12.3101 25.0507 13.1475C25.0678 13.9871 24.6235 14.0833 24.6235 15.1963V15.2583C24.7452 14.7028 25.0059 14.4123 25.2751 14.2371C25.4759 14.1046 25.7728 14.0555 26.0676 14.0939C26.3347 14.1452 26.9051 14.3589 26.8795 15.2454C26.6765 15.1173 26.4842 15.0532 26.3112 15.0254C26.2556 15.0104 26.1403 15.004 26.1146 15.004C25.5677 15.004 25.1234 15.4377 25.102 15.9804C25.102 15.991 25.0828 16.2538 25.0999 16.5529H25.4481H25.6041C28.2767 16.6042 29.6226 16.8413 30.2934 17.7984H30.2955C30.2998 17.8048 30.3062 17.8091 30.3148 17.8091C30.3254 17.8091 30.334 17.8005 30.3361 17.792H30.3383C30.4344 17.3775 30.5305 16.961 30.6288 16.5422C30.6352 16.5422 30.6715 16.3713 30.6737 16.3606C30.8553 15.6193 31.0347 14.878 31.2142 14.1345C31.2911 13.8205 31.3658 13.5064 31.4428 13.1924C31.5709 12.6327 31.7525 12.0858 31.6714 11.5025ZM19.979 15.3437C19.5773 15.3437 19.2505 15.0169 19.2505 14.6152C19.2505 14.2136 19.5773 13.8867 19.979 13.8867C20.3806 13.8867 20.7075 14.2114 20.7075 14.6152C20.7054 15.0169 20.3806 15.3437 19.979 15.3437ZM22.6644 12.0024L21.186 12.011C20.2503 12.0088 19.1202 12.2716 18.6138 13.3847C18.1545 12.9382 17.9708 12.3592 17.9281 12.2033C17.8875 12.0003 17.8661 11.8144 17.8875 11.6478C17.9516 11.1842 18.2293 10.7633 18.6096 10.5497C18.8296 10.4258 19.1138 10.3617 19.4534 10.3617C19.8465 10.3617 20.2952 10.4472 20.7524 10.6095C21.1476 10.7505 21.5407 10.8637 21.9359 10.9556L21.938 10.9577C21.938 10.9577 22.2222 11.0325 22.6644 11.0817V12.0024ZM28.5223 15.3437C28.1207 15.3437 27.7938 15.0169 27.7938 14.6152C27.7938 14.2136 28.1186 13.8867 28.5223 13.8867C28.924 13.8867 29.2508 14.2114 29.2508 14.6152C29.2508 15.0169 28.9261 15.3437 28.5223 15.3437ZM30.5754 12.2033C30.5327 12.3592 30.3489 12.9382 29.8896 13.3847C29.3833 12.2716 28.251 12.0088 27.3174 12.011L25.8391 12.0024V11.0795C26.2813 11.0304 26.5654 10.9556 26.5654 10.9556L26.5676 10.9535C26.9628 10.8616 27.3559 10.7484 27.7511 10.6074C28.2062 10.445 28.6548 10.3596 29.05 10.3596C29.3897 10.3596 29.6738 10.4237 29.8939 10.5476C30.2763 10.7633 30.5519 11.1842 30.616 11.6457C30.6373 11.8144 30.616 12.0003 30.5754 12.2033Z"
    fill="white" />
  <path
    d="M22.4917 34.3511C24.2328 34.9963 25.9099 35.8273 27.4865 36.825H38.0317C38.7602 36.058 39.4246 35.227 40.0121 34.3511H22.4917Z"
    fill="white" />
  <path
    d="M32.4472 40.8731C33.8038 40.23 35.0813 39.4246 36.2499 38.4761H29.8066C30.7381 39.2153 31.6247 40.0207 32.4472 40.8731Z"
    fill="white" />
  <path
    d="M13.2559 36.825C18.661 36.825 23.8908 38.7798 27.9884 42.3283C28.9519 42.1446 29.8983 41.8861 30.8062 41.5571C26.0913 36.9083 19.868 34.3511 13.2559 34.3511C11.8716 34.3511 10.4829 34.4664 9.12207 34.6929C9.67753 35.4812 10.3013 36.2375 10.9786 36.9404C11.737 36.8634 12.5039 36.825 13.2559 36.825Z"
    fill="white" />
  <path
    d="M25.7218 42.6206C22.0921 39.9074 17.7894 38.4761 13.256 38.4761C13.0702 38.4761 12.8757 38.4803 12.6621 38.4868C15.9884 41.185 20.1608 42.6676 24.4506 42.6676C24.8565 42.6676 25.2752 42.6527 25.7218 42.6206Z"
    fill="white" />
</svg>
